<svg width="1802" height="600" xmlns="http://www.w3.org/2000/svg">
 <g>
  <title>Layer 1</title>
  <path fill="#fff" stroke="#000" opacity="NaN" d="m415.84416,143.39999c0,0 41,-15 40.80002,-15.39999c0.19998,0.4 -18.80002,15.39999 -6.80002,35.39999c12,20 8,18 27,24c19,6 52,78 -50,192c-102,114 -271.39997,96.20002 -289.19998,89.60001c-17.80001,-6.60001 -58.80001,-13.60001 -37.80001,-52.60001c21,-39 71,-1 209,-89c138,-88 134,-136 126,-156c-8,-20 -11,-4 -19,-28l-0.00001,0z" id="svg_1"/>
  <path fill="#fff" stroke="#000" opacity="NaN" id="svg_2"/>
  <path fill="#000" stroke="#fff" opacity="NaN" d="m134.19999,291.39999" id="svg_3"/>
  <path fill="#000" stroke="#fff" opacity="NaN" d="m200,430.39999c0,0 62,18 152,-53c90,-71 96,-126 95.80001,-126.39999c0.19998,0.39999 -21.80002,60.39999 -100.80001,122.39999c-79,62 -147,57 -147,57z" id="svg_4"/>
  <text transform="matrix(1.09531 0 0 1.09531 -64.5328 -57.9377)" stroke="#000000" xml:space="preserve" text-anchor="start" font-family="'Alegreya'" font-size="250" stroke-width="0" id="svg_5" y="416.79999" x="551.20005" fill="#fff">Beibi Tech</text>
 </g>

</svg>